<?xml version="1.0" standalone="no"?>
<!DOCTYPE svg PUBLIC "-//W3C//DTD SVG 20010904//EN"
 "http://www.w3.org/TR/2001/REC-SVG-20010904/DTD/svg10.dtd">
<svg version="1.0" xmlns="http://www.w3.org/2000/svg"
 width="348.000000pt" height="300.000000pt" viewBox="0 0 348.000000 300.000000"
 preserveAspectRatio="xMidYMid meet">

<g transform="translate(0.000000,300.000000) scale(0.100000,-0.100000)"
fill="#000000" stroke="none">
<path d="M2620 2531 c0 -5 9 -7 20 -4 11 3 20 7 20 9 0 2 -9 4 -20 4 -11 0
-20 -4 -20 -9z"/>
<path d="M2560 2509 c0 -5 5 -7 10 -4 6 3 10 8 10 11 0 2 -4 4 -10 4 -5 0 -10
-5 -10 -11z"/>
<path d="M2820 2436 c0 -2 11 -6 25 -8 13 -3 22 -1 19 3 -5 9 -44 13 -44 5z"/>
<path d="M2550 2385 c-62 -18 -201 -54 -225 -59 -11 -1 -33 -8 -48 -14 -16 -7
-47 -15 -70 -18 -23 -3 -51 -9 -62 -14 -17 -7 -119 -34 -174 -45 -48 -10 -123
-30 -177 -46 -33 -11 -69 -19 -80 -19 -10 0 -48 -8 -84 -19 -36 -11 -85 -24
-110 -30 -25 -6 -97 -25 -160 -42 -63 -17 -131 -35 -150 -39 -19 -5 -44 -11
-55 -14 -11 -4 -60 -15 -110 -25 -49 -11 -103 -24 -118 -30 -16 -6 -41 -11
-56 -11 -15 0 -31 -3 -35 -7 -4 -5 -12 -9 -17 -9 -5 -1 -10 -2 -11 -4 -5 -3
-41 -10 -83 -17 -47 -7 -113 -55 -121 -89 -6 -23 -2 -41 46 -204 12 -41 25
-93 29 -115 5 -22 15 -67 24 -100 16 -60 45 -189 67 -297 21 -105 63 -153 124
-142 14 2 38 6 54 8 15 1 37 8 49 14 12 7 35 12 51 12 16 0 51 7 78 16 27 8
74 21 104 29 30 7 98 25 150 39 52 14 107 28 122 30 14 3 64 16 110 30 104 30
338 90 401 102 16 3 50 12 75 21 26 8 67 19 92 23 58 11 158 36 241 60 36 11
79 20 95 20 16 1 54 9 84 20 30 11 69 19 87 20 17 0 34 4 37 9 3 4 33 14 67
21 65 14 122 53 132 89 2 10 -6 51 -19 92 -13 41 -24 81 -24 89 0 8 -8 44 -19
80 -25 83 -57 201 -72 265 -6 28 -15 64 -20 80 -5 17 -16 61 -25 99 -21 93
-30 115 -57 137 -26 22 -74 23 -137 4z m95 -12 c16 -1 31 -7 33 -13 2 -6 10
-17 18 -24 7 -8 18 -44 24 -81 6 -38 15 -77 21 -87 6 -11 14 -40 19 -66 5 -26
23 -99 40 -162 17 -63 35 -137 40 -163 5 -26 12 -58 16 -70 23 -68 37 -144 30
-170 -6 -27 -95 -77 -137 -77 -15 0 -46 -7 -70 -15 -58 -21 -54 -27 -94 140
-8 33 -18 69 -21 80 -3 11 -8 31 -11 45 -2 14 -6 30 -8 35 -1 6 -3 12 -3 15 0
3 -6 19 -12 35 -7 17 -15 50 -20 75 -14 77 -21 102 -30 121 -6 10 -10 28 -10
41 0 13 -7 43 -15 68 -16 48 -55 204 -55 219 0 5 15 11 33 14 49 7 152 40 155
49 2 4 9 5 15 1 7 -4 25 -8 42 -10z m-235 -188 c35 -134 52 -199 56 -225 3
-14 14 -55 24 -91 11 -36 20 -76 20 -87 0 -12 9 -45 20 -74 11 -29 20 -62 20
-74 0 -11 8 -45 18 -75 11 -30 21 -72 24 -94 l5 -40 -72 -23 c-41 -12 -81 -22
-90 -22 -9 0 -47 -9 -83 -20 -37 -11 -78 -21 -92 -23 -14 -1 -30 -5 -35 -9 -6
-3 -48 -13 -94 -22 -46 -9 -104 -23 -130 -31 -25 -8 -97 -26 -160 -41 -63 -14
-132 -32 -154 -40 -22 -8 -50 -14 -63 -14 -12 0 -35 -5 -51 -12 -35 -14 -39
-15 -93 -29 -25 -6 -70 -18 -100 -26 -30 -9 -71 -19 -90 -24 -19 -4 -62 -14
-94 -23 -32 -9 -59 -15 -60 -14 -1 2 -21 84 -45 183 -24 99 -50 205 -58 235
-9 30 -21 80 -28 110 -19 77 -34 135 -56 208 -10 34 -19 71 -19 82 0 10 -5 31
-12 45 -14 32 -9 37 50 46 87 14 117 21 127 30 5 5 21 9 35 9 14 0 51 9 83 20
31 11 68 20 82 20 14 0 33 4 43 10 15 9 134 40 282 75 30 7 75 20 99 29 24 9
53 16 64 16 11 0 43 7 71 15 90 26 210 56 261 66 28 5 97 21 155 37 l105 28 7
-25 c3 -14 16 -62 28 -106z m-1517 -277 c8 -18 20 -58 27 -88 7 -30 21 -80 31
-111 11 -30 19 -66 19 -79 0 -12 8 -48 19 -79 10 -31 29 -101 41 -156 13 -55
29 -120 36 -145 10 -34 44 -186 44 -197 0 -8 -139 -44 -192 -49 -62 -6 -68 -5
-92 19 -17 18 -26 37 -26 59 0 18 -7 56 -16 83 -9 28 -20 70 -24 95 -9 55 -36
164 -61 246 -11 33 -19 70 -19 82 0 12 -12 56 -26 99 -28 83 -33 159 -12 178
14 13 132 51 182 59 16 3 31 8 34 11 12 12 22 3 35 -27z"/>
<path d="M2588 2292 c-16 -2 -28 -8 -28 -13 0 -6 -9 -8 -20 -4 -31 10 -90 -23
-90 -51 0 -35 40 -58 74 -43 14 7 26 16 26 21 0 4 18 7 40 6 47 -2 72 17 68
50 -3 28 -28 40 -70 34z m42 -37 c0 -25 -21 -38 -45 -29 -30 12 -12 48 25 51
15 1 20 -4 20 -22z m-80 -24 c0 -13 -10 -20 -31 -25 -37 -7 -49 -1 -49 25 0
16 7 19 40 19 32 0 40 -4 40 -19z"/>
<path d="M2630 2156 c0 -9 3 -15 8 -15 37 6 46 -35 10 -46 -16 -6 -26 -1 -39
16 l-19 24 0 -26 c0 -20 -6 -28 -25 -33 -14 -4 -25 -11 -25 -16 0 -6 -9 -5
-20 2 -25 16 -26 44 -2 57 15 9 15 10 1 11 -45 1 -50 -74 -6 -85 26 -7 77 10
77 25 0 5 20 10 45 10 40 0 45 3 51 27 4 14 2 33 -3 42 -14 22 -53 27 -53 7z"/>
<path d="M2556 2003 c-3 -3 -6 -17 -6 -30 0 -13 -7 -26 -15 -29 -27 -11 -16
-22 20 -22 19 0 35 3 35 7 0 10 70 31 104 31 23 0 46 23 35 34 -8 7 -166 15
-173 9z m118 -23 c-16 -16 -96 -18 -101 -2 -3 9 11 12 53 12 40 0 55 -3 48
-10z"/>
<path d="M2582 1843 c2 -24 -1 -38 -9 -38 -6 0 -15 -4 -20 -9 -5 -5 1 -7 14
-3 13 3 26 1 29 -5 4 -5 13 -4 22 5 10 7 45 22 80 32 46 14 62 23 60 34 -3 13
-21 17 -91 19 l-88 3 3 -38z m78 -7 c-47 -13 -60 -12 -60 5 0 5 24 9 53 8 l52
-1 -45 -12z"/>
<path d="M2745 1771 c-3 -5 0 -13 7 -17 12 -8 -131 -55 -144 -47 -5 2 -8 11
-8 19 0 8 -5 12 -10 9 -9 -6 -7 -26 7 -78 2 -9 9 -15 14 -11 6 3 8 12 5 19 -3
10 12 19 49 29 29 9 60 16 69 16 18 0 66 21 66 29 -1 13 -49 41 -55 32z"/>
<path d="M2777 1703 c-10 -9 -9 -33 1 -33 4 0 8 9 8 20 0 23 0 22 -9 13z"/>
<path d="M2800 1685 c0 -8 4 -15 10 -15 5 0 7 7 4 15 -4 8 -8 15 -10 15 -2 0
-4 -7 -4 -15z"/>
<path d="M2674 1585 c6 -33 5 -35 -19 -35 -40 0 -25 -22 18 -26 25 -2 37 1 37
9 0 8 26 18 62 26 76 16 77 16 71 41 -5 18 -14 20 -90 20 l-85 0 6 -35z m66
-9 c-36 -13 -50 -12 -50 5 0 5 19 9 43 8 l42 0 -35 -13z"/>
<path d="M2255 2145 c-27 -7 -76 -19 -108 -26 -32 -7 -60 -15 -62 -18 -2 -3
-1 -19 2 -35 5 -26 8 -28 44 -23 40 5 49 -3 49 -46 0 -12 10 -50 22 -85 23
-66 21 -65 86 -41 27 10 26 5 2 107 -11 46 -20 87 -20 93 0 5 16 9 35 9 38 0
42 10 25 54 -11 29 -8 29 -75 11z"/>
<path d="M2013 2087 c-50 -12 -50 -16 -24 -106 11 -36 27 -92 36 -123 17 -61
14 -60 78 -36 33 13 35 36 7 127 -11 36 -25 85 -30 109 -6 23 -14 41 -18 41
-4 -1 -26 -7 -49 -12z"/>
<path d="M1890 2054 c-25 -8 -56 -14 -69 -14 -24 0 -24 -1 -18 -86 5 -85 5
-86 -13 -57 -9 16 -22 45 -29 65 -7 20 -18 39 -26 42 -15 5 -119 -9 -135 -19
-5 -3 0 -24 10 -48 11 -23 20 -51 20 -62 0 -11 10 -53 22 -93 17 -58 24 -72
37 -67 9 4 28 9 44 12 32 7 32 8 7 80 -11 32 -20 62 -20 68 1 14 39 -37 40
-52 0 -6 8 -25 18 -42 13 -24 24 -31 49 -31 17 0 35 5 39 12 5 7 7 53 7 103
-1 49 1 77 4 60 5 -39 33 -128 43 -138 11 -12 90 13 90 28 0 7 -7 29 -16 50
-8 20 -20 61 -25 91 -6 30 -15 67 -22 83 l-12 28 -45 -13z"/>
<path d="M1425 1940 c-27 -10 -60 -19 -72 -19 -20 -1 -22 -5 -17 -33 3 -18 14
-60 24 -93 10 -33 21 -78 24 -99 7 -53 16 -59 59 -41 20 8 48 15 63 15 14 0
44 10 65 22 49 27 59 68 35 143 -9 28 -16 58 -16 66 0 20 -61 59 -91 58 -13 0
-46 -9 -74 -19z m70 -69 c11 -18 25 -115 19 -133 -3 -10 -14 -18 -25 -18 -14
0 -19 7 -19 29 0 16 -7 48 -15 71 -8 23 -15 46 -15 51 0 12 47 12 55 0z"/>
<path d="M1179 1877 l-57 -9 -6 -56 c-14 -131 -18 -240 -10 -245 5 -3 33 2 61
11 47 15 53 20 53 45 0 22 4 27 24 27 16 0 27 -7 31 -21 5 -14 12 -18 23 -14
10 4 32 9 50 12 23 4 32 11 32 24 0 11 -4 19 -9 19 -5 0 -17 17 -26 38 -10 20
-21 39 -25 42 -4 3 -14 20 -23 38 -40 77 -49 92 -55 95 -4 2 -32 -1 -63 -6z
m44 -119 c13 -33 14 -43 5 -50 -21 -13 -25 -10 -32 30 -12 76 -1 85 27 20z"/>
<path d="M2095 1760 c-16 -5 -60 -16 -97 -25 -38 -10 -68 -22 -68 -28 0 -6 9
-40 20 -76 10 -36 25 -91 33 -121 14 -54 14 -55 48 -52 19 2 69 15 112 29 64
21 77 29 77 47 0 42 -13 49 -55 32 -52 -22 -85 -21 -85 2 0 14 11 21 48 28 44
8 47 11 50 43 l3 34 -38 -6 c-21 -4 -50 -9 -65 -13 -22 -5 -28 -3 -28 9 0 15
31 28 95 39 13 3 19 10 17 23 -7 48 -11 50 -67 35z"/>
<path d="M1833 1697 c-39 -13 -39 -16 -14 -90 11 -32 18 -57 16 -57 -2 0 -14
17 -26 38 -13 20 -29 43 -35 49 -7 7 -14 18 -16 25 -4 10 -17 10 -64 -2 -32
-9 -58 -20 -57 -25 1 -6 11 -35 23 -65 11 -30 20 -61 20 -68 0 -8 7 -38 16
-68 17 -58 32 -66 89 -44 29 11 28 29 -8 108 -10 24 -16 46 -14 49 3 2 8 -5
12 -16 3 -12 11 -21 16 -21 5 0 9 -6 9 -13 0 -8 9 -22 20 -32 11 -10 20 -24
20 -30 0 -19 20 -22 78 -12 60 10 61 11 33 106 -11 36 -27 92 -36 124 -17 61
-21 64 -82 44z"/>
<path d="M1460 1599 c-24 -11 -52 -29 -62 -39 -27 -28 -23 -93 9 -160 35 -74
67 -88 155 -69 65 15 108 51 108 92 0 38 -43 152 -66 175 -29 28 -83 29 -144
1z m73 -66 c13 -25 18 -48 29 -128 5 -32 -28 -30 -39 2 -13 37 -33 119 -33
138 0 25 29 17 43 -12z"/>
<path d="M806 1815 c-15 -8 -45 -15 -65 -15 -50 0 -63 -11 -59 -51 3 -30 6
-34 36 -37 21 -2 41 3 51 13 10 8 25 13 35 9 9 -3 30 -1 46 6 34 14 40 48 14
74 -19 20 -22 20 -58 1z m42 -14 c25 -16 10 -46 -23 -46 -23 0 -31 5 -33 22
-3 19 4 25 38 32 3 0 11 -3 18 -8z m-80 -38 c4 -30 -39 -53 -63 -33 -20 17
-19 37 3 49 27 17 57 9 60 -16z"/>
<path d="M860 1690 c0 -5 3 -10 8 -10 18 -1 32 -18 26 -33 -8 -21 -53 -22 -60
-2 -10 24 -21 18 -27 -15 -6 -26 -11 -30 -41 -30 -38 0 -53 21 -31 44 19 18
19 26 1 26 -16 0 -29 -41 -20 -64 8 -21 77 -22 97 -2 8 9 24 12 36 9 24 -6 71
21 71 42 0 7 -10 21 -22 29 -26 18 -38 20 -38 6z"/>
<path d="M785 1529 c-3 -4 -1 -18 4 -31 9 -21 10 -21 10 -3 1 18 6 20 44 16
l42 -4 -35 -8 c-19 -4 -36 -12 -38 -18 -2 -6 -18 -12 -35 -12 l-32 -1 30 -7
c17 -4 32 -4 35 0 3 5 39 19 80 32 42 14 68 27 60 30 -25 9 -161 14 -165 6z"/>
<path d="M816 1375 c4 -18 1 -27 -10 -31 -24 -9 -20 -19 8 -19 13 0 22 5 19
11 -2 6 0 19 4 30 7 15 15 18 43 14 l35 -6 -32 -8 c-34 -8 -55 -26 -31 -26 26
0 138 42 133 49 -2 4 -43 8 -90 9 l-85 2 6 -25z"/>
<path d="M970 1285 c0 -8 6 -15 13 -16 6 0 -10 -7 -38 -14 -27 -7 -65 -18 -84
-24 -29 -9 -34 -8 -38 9 -3 11 -9 20 -14 20 -12 0 -11 -10 2 -49 12 -35 29
-41 29 -11 0 14 7 20 21 20 33 0 149 33 149 43 0 9 -25 37 -34 37 -3 0 -6 -7
-6 -15z"/>
<path d="M895 1120 c6 -26 4 -30 -14 -30 -12 0 -21 -6 -21 -16 0 -11 6 -14 21
-9 14 5 25 2 30 -6 7 -11 10 -9 15 9 5 16 14 22 37 22 50 0 108 21 105 39 -3
12 -21 16 -91 19 l-89 3 7 -31z m90 -5 c-40 -19 -65 -18 -65 0 0 11 12 15 48
14 l47 -1 -30 -13z"/>
<path d="M1820 2322 c0 -5 14 -7 30 -4 17 2 30 6 30 8 0 2 -13 4 -30 4 -16 0
-30 -4 -30 -8z"/>
<path d="M1688 2283 c7 -3 16 -2 19 1 4 3 -2 6 -13 5 -11 0 -14 -3 -6 -6z"/>
<path d="M1575 2260 c-13 -6 -15 -9 -5 -9 8 0 22 4 30 9 18 12 2 12 -25 0z"/>
<path d="M1518 2243 c6 -2 18 -2 25 0 6 3 1 5 -13 5 -14 0 -19 -2 -12 -5z"/>
<path d="M2900 2243 c0 -4 5 -15 10 -23 8 -13 10 -13 10 2 0 9 -4 20 -10 23
-5 3 -10 3 -10 -2z"/>
<path d="M1456 2231 c-16 -6 -17 -9 -5 -13 8 -3 23 0 34 8 21 16 5 18 -29 5z"/>
<path d="M1305 2190 c-27 -10 -41 -18 -30 -18 11 0 43 8 70 18 28 10 41 18 30
18 -11 0 -42 -8 -70 -18z"/>
<path d="M2920 2181 c0 -6 4 -13 10 -16 6 -3 7 1 4 9 -7 18 -14 21 -14 7z"/>
<path d="M1190 2160 c-11 -8 -7 -9 15 -4 37 8 45 14 19 14 -10 0 -26 -5 -34
-10z"/>
<path d="M1110 2140 c-20 -6 -21 -8 -5 -8 11 0 29 3 40 8 25 11 -1 11 -35 0z"/>
<path d="M2921 2124 c0 -11 3 -14 6 -6 3 7 2 16 -1 19 -3 4 -6 -2 -5 -13z"/>
<path d="M1005 2115 c-5 -2 -30 -9 -54 -15 -23 -6 -41 -14 -38 -16 5 -6 117
25 117 32 0 5 -10 4 -25 -1z"/>
<path d="M2947 2089 c4 -13 8 -18 11 -10 2 7 -1 18 -6 23 -8 8 -9 4 -5 -13z"/>
<path d="M858 2073 c6 -2 18 -2 25 0 6 3 1 5 -13 5 -14 0 -19 -2 -12 -5z"/>
<path d="M818 2063 c7 -3 16 -2 19 1 4 3 -2 6 -13 5 -11 0 -14 -3 -6 -6z"/>
<path d="M748 2043 c7 -3 16 -2 19 1 4 3 -2 6 -13 5 -11 0 -14 -3 -6 -6z"/>
<path d="M541 1974 c0 -11 3 -14 6 -6 3 7 2 16 -1 19 -3 4 -6 -2 -5 -13z"/>
<path d="M2986 1947 c3 -10 9 -15 12 -12 3 3 0 11 -7 18 -10 9 -11 8 -5 -6z"/>
<path d="M3026 1785 c4 -8 8 -15 10 -15 2 0 4 7 4 15 0 8 -4 15 -10 15 -5 0
-7 -7 -4 -15z"/>
<path d="M3085 1611 c7 -13 -19 -54 -28 -44 -4 3 -7 1 -7 -5 0 -7 -5 -12 -11
-12 -13 0 -49 -38 -49 -52 0 -5 9 -4 19 1 15 9 20 7 24 -10 4 -16 3 -18 -9 -8
-9 7 -14 8 -14 1 0 -6 5 -14 10 -17 6 -4 8 -16 4 -27 -5 -16 -3 -19 7 -12 12
6 12 5 0 -9 -12 -15 -11 -17 10 -18 13 -1 29 -1 35 0 7 1 11 -10 10 -24 -1
-25 -1 -25 -17 -4 -15 20 -16 20 -47 2 -32 -18 -44 -37 -17 -27 8 4 15 1 15
-6 0 -6 -4 -8 -10 -5 -6 4 -7 -1 -3 -11 4 -12 8 -14 11 -6 3 10 7 10 18 1 11
-9 14 -8 14 5 0 9 5 16 11 16 6 0 8 -8 4 -19 -5 -15 -2 -18 13 -14 15 3 18 12
16 39 -1 22 1 32 8 28 7 -5 7 -1 0 11 -7 13 -7 26 1 42 7 16 7 26 -1 36 -8 10
-7 21 4 42 10 19 11 31 5 33 -14 5 -14 49 -1 54 6 2 1 9 -11 16 -12 8 -18 9
-14 3z m-5 -115 c0 -3 -4 -8 -10 -11 -5 -3 -10 -1 -10 4 0 6 5 11 10 11 6 0
10 -2 10 -4z m10 -76 c0 -5 -5 -10 -11 -10 -5 0 -7 5 -4 10 3 6 8 10 11 10 2
0 4 -4 4 -10z"/>
<path d="M497 1569 c4 -13 8 -18 11 -10 2 7 -1 18 -6 23 -8 8 -9 4 -5 -13z"/>
<path d="M2980 1460 c0 -5 6 -11 13 -13 7 -3 5 -6 -5 -6 -15 -1 -18 -11 -18
-60 0 -56 -1 -59 -27 -64 l-28 -6 0 -133 c0 -201 -15 -438 -28 -459 -19 -31
-68 -41 -179 -35 l-103 4 1 74 c1 196 15 441 25 459 13 26 9 31 -12 15 -21
-14 -28 -93 -29 -324 -1 -92 -4 -180 -7 -195 l-6 -28 -141 6 c-77 4 -197 8
-266 10 -69 2 -192 6 -275 9 -142 5 -647 19 -765 20 l-55 1 1 43 c0 23 3 44 6
47 3 3 28 8 57 12 36 4 51 10 51 21 0 10 4 12 13 4 8 -7 16 -6 24 3 8 9 9 16
3 20 -6 3 -10 1 -10 -5 0 -7 -6 -10 -12 -7 -7 2 -22 -1 -33 -6 -23 -12 -36
-16 -82 -23 -18 -2 -45 -10 -60 -16 -16 -6 -36 -12 -46 -13 -10 -2 -23 -7 -28
-12 -14 -14 41 -4 59 10 8 6 12 5 12 -4 0 -11 2 -11 10 1 7 11 10 3 10 -28 l0
-43 -106 3 c-58 1 -108 6 -110 10 -3 5 -13 8 -23 8 -27 0 -47 28 -33 42 9 9
15 9 24 0 15 -15 28 -15 28 -1 0 5 -5 7 -12 3 -8 -5 -9 1 -5 22 7 35 -15 69
-38 60 -13 -4 -15 -1 -10 13 4 14 0 23 -15 31 -15 8 -20 8 -20 -2 0 -8 -5 -6
-11 5 -6 10 -22 17 -40 17 -23 0 -34 7 -47 30 -9 16 -23 30 -29 30 -7 0 -13 9
-13 20 0 11 4 20 9 20 5 0 7 9 4 20 -7 27 -23 25 -23 -2 -1 -13 -3 -83 -6
-157 -5 -106 -3 -135 7 -142 22 -14 49 -10 49 6 0 8 -6 12 -14 9 -7 -3 -16 2
-19 10 -4 9 -3 16 2 16 4 0 8 7 8 15 0 8 -6 15 -14 15 -19 0 -17 80 3 108 21
31 30 28 50 -18 10 -21 25 -41 33 -43 13 -4 13 -5 -1 -6 -10 0 -18 -5 -18 -10
0 -5 11 -8 25 -7 23 1 30 8 26 30 -1 5 5 3 15 -4 9 -8 12 -16 6 -18 -6 -2 -8
-10 -5 -19 3 -8 0 -18 -7 -23 -8 -5 1 -21 34 -53 36 -36 54 -47 88 -51 24 -3
189 -8 368 -11 179 -3 359 -7 400 -9 41 -3 163 -7 270 -11 107 -3 231 -8 275
-10 123 -7 529 -19 628 -18 83 0 90 2 118 29 l29 28 0 195 c0 108 3 239 6 291
7 95 7 96 33 95 18 0 25 4 22 15 -8 31 -7 70 1 70 4 0 8 -5 8 -11 0 -5 4 -8 9
-4 6 3 9 14 8 25 -1 13 -5 16 -13 9 -8 -6 -14 -5 -18 6 -3 9 -2 14 2 11 4 -3
13 4 19 14 10 15 9 19 -8 23 -10 3 -19 1 -19 -3z m-2290 -530 c0 -5 -4 -10
-10 -10 -5 0 -10 5 -10 10 0 6 5 10 10 10 6 0 10 -4 10 -10z"/>
<path d="M2800 1290 c0 -6 -9 -10 -20 -10 -11 0 -20 -4 -20 -10 0 -12 10 -13
30 0 9 5 19 5 27 -1 8 -8 18 -6 33 4 12 8 31 12 42 9 14 -3 19 -1 14 6 -11 18
-57 14 -73 -5 -8 -10 -12 -13 -9 -7 3 7 -1 14 -9 18 -8 3 -15 1 -15 -4z"/>
<path d="M2713 1262 c-18 -2 -33 -7 -33 -13 0 -5 5 -9 10 -9 6 0 10 -9 10 -21
0 -16 -4 -19 -20 -14 -14 5 -20 2 -20 -9 0 -9 8 -16 18 -16 10 0 23 -5 30 -12
9 -9 12 -9 12 0 0 8 24 12 80 12 65 0 80 3 80 15 0 9 -6 17 -12 19 -66 18
-102 32 -112 41 -6 5 -26 9 -43 7z m97 -53 c10 -5 -4 -9 -37 -9 -40 0 -53 4
-53 14 0 11 9 13 38 9 20 -3 44 -9 52 -14z"/>
<path d="M3086 1221 c-3 -5 1 -11 9 -15 9 -3 15 0 15 9 0 16 -16 20 -24 6z"/>
<path d="M2030 1206 c0 -9 5 -16 10 -16 6 0 10 4 10 9 0 6 -4 13 -10 16 -5 3
-10 -1 -10 -9z"/>
<path d="M2510 1203 c0 -15 2 -15 9 -4 5 8 16 11 25 8 8 -3 18 -2 21 3 4 6 -7
10 -24 10 -23 0 -31 -5 -31 -17z"/>
<path d="M2456 1192 c-3 -5 1 -9 9 -9 8 0 15 4 15 9 0 4 -4 8 -9 8 -6 0 -12
-4 -15 -8z"/>
<path d="M2265 1152 c-42 -25 -123 -42 -129 -28 -2 6 -5 3 -5 -6 -1 -9 -9 -17
-18 -17 -10 -1 -34 -3 -53 -7 l-35 -6 3 -103 3 -104 115 0 114 -1 0 35 0 35
-66 0 c-62 0 -65 1 -62 22 3 20 8 22 61 19 l57 -2 0 30 0 31 -60 0 c-53 0 -60
2 -60 20 0 18 7 20 65 20 63 0 65 1 65 25 0 15 6 25 14 25 15 0 31 18 24 25
-2 2 -17 -4 -33 -13z"/>
<path d="M570 1146 c0 -9 5 -16 10 -16 6 0 10 4 10 9 0 6 -4 13 -10 16 -5 3
-10 -1 -10 -9z"/>
<path d="M2699 1108 c-8 -75 -7 -88 6 -88 8 0 15 5 15 10 0 6 32 10 75 10 53
0 75 4 75 13 0 14 -45 37 -75 37 -12 0 -25 4 -30 9 -18 16 -65 22 -66 9z m78
-30 c18 -7 33 -16 33 -21 0 -5 -7 -6 -16 -3 -9 3 -29 6 -45 6 -19 0 -29 5 -29
15 0 18 13 19 57 3z"/>
<path d="M3080 1109 c0 -5 5 -7 10 -4 6 3 10 8 10 11 0 2 -4 4 -10 4 -5 0 -10
-5 -10 -11z"/>
<path d="M1992 1095 c-14 -8 -19 -14 -12 -17 7 -2 -7 -10 -31 -18 -24 -8 -47
-19 -51 -25 -5 -6 -8 -6 -8 2 0 13 -21 12 -52 -2 -10 -4 -29 -8 -43 -9 -14 0
-25 -4 -25 -8 0 -5 -9 -8 -20 -8 -18 0 -20 -7 -20 -60 l0 -60 54 0 54 0 -4 68
c-2 37 -1 60 2 52 3 -8 15 -39 26 -67 l20 -53 59 0 59 0 0 80 c0 44 4 80 9 80
4 0 8 13 7 30 -1 16 -1 30 -1 29 0 -1 -11 -7 -23 -14z"/>
<path d="M2650 1051 c0 -5 9 -7 20 -4 11 3 20 7 20 9 0 2 -9 4 -20 4 -11 0
-20 -4 -20 -9z"/>
<path d="M1653 987 c-34 -12 -64 -29 -65 -37 -3 -12 -5 -12 -18 1 -13 14 -18
14 -55 0 -54 -20 -53 -20 -25 -41 19 -15 42 -20 96 -20 74 0 96 12 119 65 6
16 15 58 11 54 -1 0 -29 -10 -63 -22z"/>
<path d="M2668 974 c-12 -11 -10 -84 2 -84 6 0 10 9 10 21 0 20 4 20 100 14
55 -4 100 -4 100 0 0 4 -8 18 -19 31 -19 24 -34 23 -24 -2 4 -11 -10 -14 -75
-14 -74 0 -81 2 -84 21 -2 11 -6 17 -10 13z"/>
<path d="M1415 920 c-7 -12 2 -12 30 0 19 8 19 9 -2 9 -12 1 -25 -3 -28 -9z"/>
<path d="M3079 895 c-3 -46 -4 -50 -10 -55 -4 -3 -1 -11 7 -18 12 -11 14 -4
14 43 0 55 -9 78 -11 30z"/>
<path d="M1320 896 c7 -7 13 -7 20 0 6 6 3 10 -10 10 -13 0 -16 -4 -10 -10z"/>
<path d="M1255 880 c-3 -6 1 -7 9 -4 18 7 21 14 7 14 -6 0 -13 -4 -16 -10z"/>
<path d="M687 820 c3 -11 7 -20 9 -20 2 0 4 9 4 20 0 11 -4 20 -9 20 -5 0 -7
-9 -4 -20z"/>
<path d="M2660 800 c0 -22 5 -40 10 -40 6 0 10 8 10 18 0 16 9 17 101 14 l102
-4 -19 25 c-21 29 -37 35 -32 13 3 -17 8 -16 -82 -16 -56 0 -70 3 -70 15 0 8
-4 15 -10 15 -5 0 -10 -18 -10 -40z"/>
<path d="M846 788 c3 -4 11 -5 19 -1 21 7 19 12 -4 10 -11 0 -18 -5 -15 -9z"/>
<path d="M918 793 c7 -3 16 -2 19 1 4 3 -2 6 -13 5 -11 0 -14 -3 -6 -6z"/>
<path d="M3080 789 c0 -5 -6 -7 -12 -3 -9 5 -9 3 1 -9 7 -9 11 -26 8 -37 -3
-11 -1 -20 4 -20 5 0 9 18 9 40 0 22 -2 40 -5 40 -3 0 -5 -5 -5 -11z"/>
<path d="M650 753 c8 -3 24 -13 34 -22 18 -15 18 -15 5 7 -8 12 -23 22 -34 21
-14 0 -16 -2 -5 -6z"/>
<path d="M3018 713 c7 -3 16 -2 19 1 4 3 -2 6 -13 5 -11 0 -14 -3 -6 -6z"/>
<path d="M724 673 c9 -18 18 -33 20 -33 9 0 -8 41 -22 52 -13 11 -12 8 2 -19z"/>
<path d="M3026 690 c-15 -5 -36 -16 -45 -24 -10 -9 -21 -13 -26 -9 -4 5 -5 2
-1 -4 5 -10 13 -9 33 5 15 9 43 22 62 28 41 14 20 17 -23 4z"/>
<path d="M740 610 c0 -13 5 -18 15 -14 12 5 13 10 4 20 -15 19 -19 18 -19 -6z"/>
<path d="M2940 619 c0 -5 5 -7 10 -4 6 3 10 8 10 11 0 2 -4 4 -10 4 -5 0 -10
-5 -10 -11z"/>
<path d="M2770 590 c0 -5 5 -10 11 -10 5 0 7 5 4 10 -3 6 -8 10 -11 10 -2 0
-4 -4 -4 -10z"/>
<path d="M735 570 c-4 -6 6 -10 22 -10 22 0 25 2 13 10 -19 12 -27 12 -35 0z"/>
<path d="M2796 552 c-3 -6 -1 -14 5 -17 15 -10 25 3 12 16 -7 7 -13 7 -17 1z"/>
<path d="M2767 530 c-4 -15 0 -20 14 -20 17 0 18 3 9 20 -6 11 -12 20 -14 20
-2 0 -6 -9 -9 -20z"/>
<path d="M2839 522 c12 -23 12 -23 -46 -22 -106 3 -90 -3 27 -10 63 -4 119 -3
125 1 5 6 5 9 -2 9 -6 0 -19 7 -27 16 -9 8 -16 11 -16 5 0 -6 -7 -11 -15 -11
-8 0 -15 5 -15 12 0 6 -3 8 -7 5 -3 -4 -13 -1 -21 6 -13 10 -14 9 -3 -11z"/>
<path d="M2513 503 c9 -2 23 -2 30 0 6 3 -1 5 -18 5 -16 0 -22 -2 -12 -5z"/>
<path d="M2568 503 c7 -3 16 -2 19 1 4 3 -2 6 -13 5 -11 0 -14 -3 -6 -6z"/>
</g>
</svg>
