<?xml version="1.0" standalone="no"?>
<!DOCTYPE svg PUBLIC "-//W3C//DTD SVG 20010904//EN"
 "http://www.w3.org/TR/2001/REC-SVG-20010904/DTD/svg10.dtd">
<svg version="1.0" xmlns="http://www.w3.org/2000/svg"
 width="900.000000pt" height="584.000000pt" viewBox="0 0 900.000000 584.000000"
 preserveAspectRatio="xMidYMid meet">

<g transform="translate(0.000000,584.000000) scale(0.100000,-0.100000)"
fill="#000000" stroke="none">
<path d="M3018 5710 c-36 -11 -96 -47 -131 -79 -105 -95 -90 -271 33 -391 97
-95 217 -138 470 -170 265 -33 369 -68 456 -155 109 -109 128 -237 97 -679
l-6 -89 60 32 c68 37 71 43 98 195 38 224 3 380 -115 497 -75 76 -164 117
-492 228 -320 107 -386 137 -454 205 -79 80 -92 171 -42 286 23 54 65 100 90
100 30 0 91 -29 121 -58 41 -39 79 -119 86 -181 l6 -54 38 56 c20 31 37 66 37
77 0 60 -86 157 -159 178 -43 14 -152 14 -193 2z"/>
<path d="M4652 4253 c-64 -229 -92 -335 -92 -349 0 -4 14 13 30 40 79 124 276
278 321 250 8 -4 10 -3 5 4 -4 7 -4 12 1 13 4 0 19 2 32 5 21 4 22 3 10 -13
-12 -16 -12 -17 1 -7 21 14 46 11 42 -6 -2 -10 0 -11 11 -2 18 16 53 -18 36
-35 -8 -8 -8 -13 0 -18 6 -3 10 -3 9 2 -2 4 1 8 7 8 5 0 9 -12 9 -27 -1 -15 2
-26 5 -23 4 2 13 0 21 -6 12 -7 12 -9 -3 -9 -28 0 -117 -48 -182 -98 -67 -52
-76 -62 -68 -76 4 -5 1 -6 -6 -1 -15 8 -83 -53 -75 -67 3 -5 0 -7 -8 -6 -7 2
-12 -3 -10 -10 1 -8 -2 -11 -7 -8 -11 7 -33 -19 -23 -28 4 -4 2 -6 -4 -4 -6 2
-44 -32 -83 -74 -40 -43 -77 -78 -82 -78 -5 0 -16 11 -25 25 -13 20 -14 30 -5
57 6 18 7 28 2 23 -10 -11 -54 -163 -105 -368 l-35 -138 61 -242 c34 -133 63
-244 65 -246 2 -3 10 4 18 16 22 32 122 96 136 88 7 -5 10 -4 6 2 -4 6 0 14 9
17 10 4 13 2 8 -7 -5 -9 -4 -9 7 1 7 6 17 12 22 12 4 0 5 -6 2 -12 -4 -7 1 -4
11 7 16 20 16 20 11 -5 -5 -22 -4 -23 7 -8 11 15 14 14 29 -11 9 -16 14 -30
11 -33 -2 -3 2 -11 10 -17 20 -17 16 7 -7 42 -9 15 -17 30 -17 34 0 4 5 0 11
-10 6 -9 14 -15 20 -12 5 4 6 -2 2 -11 -5 -13 -3 -15 7 -9 8 5 11 4 6 -3 -3
-6 -2 -14 4 -17 8 -5 8 -11 1 -19 -6 -7 -8 -15 -6 -18 10 -10 14 -49 4 -43 -5
4 -7 10 -5 14 3 4 0 13 -5 21 -9 15 -2 -57 8 -72 2 -5 1 -14 -4 -20 -8 -13
-13 -33 -15 -55 -1 -7 -5 -10 -10 -7 -4 3 -4 13 1 23 7 13 6 18 -3 18 -13 0
-14 -36 -2 -55 3 -5 -1 -15 -9 -22 -8 -7 -12 -17 -8 -23 3 -6 1 -7 -6 -3 -8 6
-9 12 -2 20 6 7 7 17 3 21 -4 5 -1 5 7 0 10 -6 12 -4 7 4 -8 12 -20 7 -22 -10
-1 -5 -3 -11 -4 -14 -1 -3 -3 -8 -4 -12 -8 -33 -20 -53 -31 -53 -15 0 -40 -38
-32 -47 3 -2 8 5 12 16 3 12 13 21 20 21 8 0 -4 -20 -27 -45 -34 -38 -43 -43
-56 -32 -13 10 -14 9 -3 -12 7 -13 8 -21 3 -17 -6 3 -12 3 -15 -1 -2 -5 -2 -3
-1 4 2 7 -1 15 -7 18 -5 4 -9 3 -8 -2 1 -4 1 -17 -1 -28 l-1 -20 -9 20 c-13
31 -12 17 20 -235 17 -129 30 -241 30 -249 0 -7 20 4 45 28 68 63 132 99 223
128 74 23 94 25 195 21 133 -6 197 -27 286 -94 190 -143 333 -468 319 -726 -5
-100 -25 -144 -75 -164 -43 -19 -83 -11 -124 23 -38 32 -67 91 -109 218 -47
144 -85 217 -142 281 -58 62 -117 96 -199 113 -106 22 -196 -15 -292 -119
-109 -117 -104 -105 -117 -285 -12 -183 -29 -290 -66 -425 -15 -52 -28 -104
-31 -116 -3 -15 15 -42 73 -103 87 -92 168 -154 264 -200 477 -231 1186 134
1668 858 112 169 258 466 321 656 95 286 337 1180 507 1875 47 190 87 353 91
364 3 10 1 16 -3 13 -16 -9 -208 -47 -344 -66 -203 -30 -327 -42 -520 -50
-598 -27 -1151 50 -1587 220 -57 22 -108 37 -115 33 -7 -4 -9 -3 -5 1 7 8
-162 95 -183 95 -4 0 -35 -98 -68 -217z m388 -38 c0 4 6 2 13 -4 8 -6 17 -7
21 -3 4 4 6 0 4 -8 -1 -8 2 -14 8 -13 8 2 10 -12 8 -40 -2 -23 0 -37 4 -30 5
9 11 6 21 -8 10 -17 10 -20 -1 -13 -7 5 -17 9 -23 9 -5 0 -10 10 -10 22 -1 20
-50 83 -64 81 -16 -2 -22 3 -16 12 5 8 11 7 21 -1 8 -6 14 -8 14 -4z m274 3
c-5 -7 13 -12 44 -11 6 1 12 -4 12 -9 0 -6 9 -8 20 -5 11 3 20 1 20 -3 0 -11
97 -33 116 -26 8 3 13 2 10 -3 -7 -11 118 -35 139 -27 9 3 13 2 10 -4 -3 -6 4
-10 17 -11 13 0 30 -2 38 -3 13 -3 146 -21 225 -31 17 -2 73 -7 125 -11 52 -3
98 -8 102 -10 4 -3 10 0 13 6 4 7 11 8 18 1 17 -14 284 -20 298 -7 9 8 10 8 5
-1 -5 -10 30 -11 156 -8 142 3 348 15 371 21 4 1 21 2 38 3 16 0 28 5 24 10
-3 5 -2 12 3 15 4 2 9 -4 9 -15 1 -10 -1 -19 -5 -19 -4 0 -72 -7 -152 -16
-178 -19 -627 -22 -825 -6 -307 27 -555 70 -757 132 -94 29 -126 46 -88 46 10
0 16 -4 14 -8z m2080 -36 c3 -5 -1 -9 -9 -9 -8 0 -12 4 -9 9 3 4 7 8 9 8 2 0
6 -4 9 -8z m-79 -11 c3 -5 2 -12 -3 -15 -5 -3 -9 1 -9 9 0 17 3 19 12 6z m65
-15 c0 -2 -8 -10 -17 -17 -16 -13 -17 -12 -4 4 13 16 21 21 21 13z m-373 -41
c0 -8 -4 -12 -9 -9 -5 3 -6 10 -3 15 9 13 12 11 12 -6z m246 0 c-3 -9 -8 -14
-10 -11 -3 3 -2 9 2 15 9 16 15 13 8 -4z m37 -6 c0 -5 -8 -9 -17 -8 -11 0 -13
3 -5 6 6 2 9 10 6 15 -4 7 -2 8 4 4 7 -4 12 -11 12 -17z m-220 7 c0 -2 -8 -10
-17 -17 -16 -13 -17 -12 -4 4 13 16 21 21 21 13z m263 -3 c-7 -2 -19 -2 -25 0
-7 3 -2 5 12 5 14 0 19 -2 13 -5z m-128 -24 c-51 -11 -72 -9 -35 5 19 7 42 10
50 7 10 -4 4 -8 -15 -12z m-664 -6 c13 -16 12 -17 -3 -4 -10 7 -18 15 -18 17
0 8 8 3 21 -13z m94 8 c3 -5 2 -12 -3 -15 -5 -3 -9 1 -9 9 0 17 3 19 12 6z
m-1814 -209 c-5 -10 -18 -25 -27 -33 -11 -9 -9 -2 6 19 26 35 36 42 21 14z
m1702 -38 c-2 -6 0 -14 5 -18 5 -3 8 7 7 23 -1 15 3 28 10 28 6 0 11 -8 11
-18 0 -10 -5 -15 -10 -12 -5 3 -6 1 -3 -4 4 -6 23 -9 44 -7 31 3 41 -2 70 -32
18 -20 31 -40 27 -45 -3 -5 0 -8 6 -7 24 6 116 -174 150 -293 22 -74 37 -285
20 -274 -4 3 -10 -2 -13 -10 -4 -10 -1 -12 11 -9 13 4 14 3 4 -3 -7 -6 -14
-19 -15 -30 -1 -14 -6 -19 -19 -15 -10 2 -15 9 -11 16 3 6 -3 3 -14 -7 -11 -9
-23 -14 -27 -10 -4 5 -6 4 -4 -2 2 -5 -1 -10 -7 -10 -5 0 -9 3 -8 6 1 3 -5 6
-13 6 -9 0 -11 -4 -5 -10 5 -5 7 -17 4 -26 -4 -14 -3 -14 7 -1 8 10 10 11 8 2
-10 -39 -27 0 -67 156 -25 94 -48 172 -52 172 -4 0 -6 -9 -4 -20 2 -11 0 -18
-5 -15 -4 3 -7 13 -5 23 1 9 -3 24 -9 32 -10 13 -9 13 7 1 17 -13 18 -12 11
15 -17 72 -79 234 -117 308 -43 85 -55 125 -31 105 11 -9 15 -7 20 6 5 12 9
13 14 4 5 -7 6 -18 3 -25z m82 14 c5 4 5 2 2 -5 -6 -9 -18 -10 -45 -4 -2 1 0
6 3 11 5 8 11 8 19 1 7 -6 17 -7 21 -3z m11 -394 c1 -9 0 -13 -4 -10 -3 4 -7
14 -8 22 -1 9 0 13 4 10 3 -4 7 -14 8 -22z m-1535 6 c48 -13 89 -55 89 -91 0
-41 -54 -80 -189 -135 -145 -58 -224 -110 -326 -213 -83 -84 -117 -100 -145
-66 -29 35 40 170 147 286 111 120 266 213 378 228 6 0 26 -4 46 -9z m-307
-39 c-43 -32 -60 -32 -26 -1 12 12 22 17 22 13 0 -4 5 -2 12 5 7 7 16 12 21
12 6 0 -8 -13 -29 -29z m-54 -35 c0 -2 -8 -10 -17 -17 -16 -13 -17 -12 -4 4
13 16 21 21 21 13z m1931 -53 c13 -16 12 -17 -3 -4 -10 7 -18 15 -18 17 0 8 8
3 21 -13z m-1227 -77 c-1 -12 -3 -25 -3 -29 -1 -5 -6 -5 -12 -1 -8 5 -8 1 0
-13 6 -11 8 -23 4 -26 -3 -4 -7 -26 -9 -49 -2 -24 -6 -61 -9 -83 -3 -22 -7
-50 -8 -62 0 -13 -4 -23 -8 -23 -5 0 -6 -9 -4 -20 2 -11 0 -20 -5 -20 -5 0 -7
-9 -5 -20 2 -11 1 -20 -4 -20 -4 0 -7 -10 -8 -22 -1 -13 -4 -34 -8 -48 -4 -14
-7 -31 -7 -37 -1 -7 -4 -13 -8 -13 -3 0 -7 -11 -8 -25 -3 -48 -5 -55 -15 -55
-6 0 -7 -3 -4 -7 4 -3 1 -13 -6 -21 -7 -10 -7 -13 -1 -9 7 4 5 -8 -4 -28 -14
-31 -44 -49 -79 -48 -42 1 -53 5 -72 21 -28 24 -32 61 -11 104 10 20 15 39 12
42 -3 4 0 6 6 6 7 0 11 3 10 8 -2 4 6 27 16 52 11 25 19 48 18 53 -1 4 3 7 10
7 6 0 9 3 6 6 -15 14 124 293 157 316 5 4 6 8 2 8 -4 0 1 10 12 22 11 11 18
26 14 31 -4 6 -1 7 7 2 9 -6 12 -4 8 7 -4 8 -1 15 6 15 7 0 11 -10 10 -21z
m735 -1 c143 -72 272 -358 273 -605 0 -129 -15 -185 -52 -185 -33 0 -64 49
-79 126 -16 81 -56 191 -92 254 -15 28 -64 95 -109 150 -88 110 -121 167 -122
216 -2 69 89 91 181 44z m261 -186 c12 -23 20 -43 18 -45 -3 -2 -14 17 -26 41
-27 56 -20 60 8 4z m420 17 c0 -2 -12 -1 -26 2 -19 3 -25 1 -20 -7 4 -6 12 -8
18 -5 7 5 8 2 4 -5 -5 -7 -11 -10 -14 -7 -3 3 -15 -2 -26 -11 -20 -17 -20 -17
-7 0 7 9 10 17 6 17 -5 0 0 9 10 20 13 15 22 17 36 9 11 -5 19 -11 19 -13z
m-866 -468 c-3 -4 -1 -8 5 -8 5 0 12 6 15 13 3 6 3 2 1 -10 -3 -12 0 -25 6
-29 8 -4 9 -3 5 4 -4 7 -2 20 3 29 6 10 11 13 11 6 0 -6 9 -10 20 -8 11 2 24
-3 28 -12 5 -8 12 -15 15 -14 15 1 37 -12 37 -22 0 -5 -10 -2 -22 9 l-23 19
18 -22 c11 -12 24 -20 30 -17 30 11 123 -152 152 -265 21 -82 23 -184 4 -208
-12 -15 -12 -16 1 -8 12 7 13 6 3 -6 -6 -8 -12 -17 -12 -22 -1 -13 -20 -43
-21 -31 0 5 6 16 13 24 10 12 9 12 -6 0 -11 -8 -16 -21 -13 -33 2 -10 2 -16
-1 -13 -10 10 -33 -15 -26 -28 4 -6 0 -5 -9 2 -11 9 -18 9 -21 2 -3 -6 -4 -5
-2 2 1 7 7 12 13 11 6 -2 16 7 22 20 9 19 9 20 -2 6 -7 -9 -21 -15 -31 -13 -9
1 -15 -1 -13 -5 3 -4 1 -13 -5 -21 -7 -13 -9 -12 -9 2 0 9 -4 19 -9 22 -5 4
-7 -4 -5 -16 2 -13 1 -17 -2 -10 -5 10 -9 9 -20 -5 -12 -16 -12 -14 -4 15 5
20 5 30 -1 27 -5 -4 -9 -12 -9 -20 0 -8 -4 -16 -9 -19 -5 -4 -7 4 -4 16 5 23
5 23 -11 3 -16 -19 -16 -19 -6 8 5 15 7 28 5 28 -3 1 -10 2 -15 3 -6 0 -15 8
-20 16 -7 12 -9 10 -7 -7 0 -12 4 -20 8 -17 14 8 21 -18 10 -29 -9 -9 -10 -7
-5 8 4 11 4 17 -1 13 -16 -15 -34 12 -25 38 7 17 6 23 -2 21 -7 -1 -12 3 -13
10 0 6 -4 15 -9 20 -5 5 -6 3 -2 -4 4 -8 2 -13 -6 -13 -8 0 -6 -5 5 -11 9 -5
17 -14 17 -19 0 -6 -11 0 -25 12 -24 20 -24 22 -8 41 14 15 14 18 3 15 -8 -2
-14 2 -13 8 1 6 -5 11 -13 11 -12 0 -12 -3 1 -17 13 -15 13 -17 0 -17 -8 0
-13 2 -10 5 2 2 -6 19 -19 36 -13 17 -21 37 -18 45 2 8 0 11 -5 8 -5 -3 -10 3
-10 14 -2 18 0 18 17 -3 11 -14 14 -25 8 -29 -7 -4 -7 -9 0 -13 5 -3 12 1 16
9 3 8 1 17 -5 20 -5 4 -6 11 -3 17 5 7 2 8 -6 3 -10 -6 -12 -4 -7 9 5 11 3 15
-5 10 -8 -5 -9 -2 -5 9 3 9 2 19 -3 22 -4 3 -7 16 -6 30 2 13 0 22 -5 20 -4
-3 -10 -1 -14 5 -4 6 -11 7 -17 4 -6 -4 -6 1 1 14 8 15 7 23 -4 32 -11 9 -12
16 -5 25 6 7 6 15 -1 22 -6 6 -5 10 5 10 8 0 13 -3 11 -7 -2 -4 2 -7 10 -7 13
0 12 3 -1 18 -9 10 -14 24 -11 31 2 7 0 22 -6 33 -5 11 -6 17 -2 13 5 -4 15
-2 23 5 11 8 14 8 9 0 -4 -6 -2 -15 5 -19 7 -4 10 -3 5 1 -4 5 1 17 10 28 10
11 13 17 7 14 -7 -4 -14 2 -17 13 -3 11 -1 18 3 15 8 -5 26 33 22 48 -1 4 7 2
17 -5 11 -7 17 -16 14 -21 -3 -5 -9 -4 -13 2 -4 7 -10 3 -17 -12 -9 -18 -8
-24 2 -24 8 0 11 7 7 16 -5 14 -4 14 13 1 10 -8 16 -10 12 -3 -4 6 -2 15 3 18
8 5 6 13 -4 24 -14 15 -14 18 -1 18 8 0 12 -4 9 -9z m-70 -84 c3 -8 2 -12 -4
-9 -6 3 -10 10 -10 16 0 14 7 11 14 -7z m-11 -237 c3 -8 -1 -14 -8 -14 -7 0
-11 6 -8 14 3 7 6 13 8 13 2 0 5 -6 8 -13z m12 -39 c4 -3 2 -9 -3 -12 -5 -3
-15 1 -21 8 -10 11 -9 14 3 12 9 -1 18 -5 21 -8z m-965 -1024 c57 -10 137 -54
179 -99 22 -24 37 -45 34 -49 -4 -3 0 -6 7 -6 7 0 11 -3 7 -6 -3 -4 0 -12 7
-20 8 -7 11 -24 8 -39 -3 -17 1 -30 9 -36 10 -6 10 -9 2 -9 -7 0 -13 -5 -13
-11 0 -5 6 -7 13 -3 9 6 9 4 1 -7 -6 -8 -10 -22 -9 -31 2 -10 -1 -20 -5 -23
-5 -3 -7 4 -5 15 2 11 0 20 -6 20 -8 0 -14 -30 -10 -53 0 -4 -5 -6 -11 -5 -7
2 -12 -3 -10 -10 1 -8 -2 -11 -8 -7 -9 6 -15 -8 -10 -30 1 -5 -4 -5 -11 2 -12
12 -42 7 -34 -6 2 -4 -2 -8 -10 -8 -8 0 -12 4 -9 9 3 4 0 8 -6 8 -6 0 -9 4 -6
8 3 5 -1 9 -8 9 -7 0 -13 -6 -14 -14 -1 -7 -3 -20 -4 -28 -1 -12 -6 -11 -24 6
-13 12 -20 27 -17 33 4 6 0 5 -9 -2 -9 -7 -15 -23 -13 -34 4 -20 4 -20 -16 -2
-12 11 -24 18 -28 18 -3 -1 -5 2 -3 7 1 5 -2 9 -8 9 -5 0 -10 -6 -11 -12 -1
-7 -4 -2 -8 12 -4 14 -13 25 -21 25 -8 1 -14 6 -12 13 3 17 -3 15 -19 -5 -8
-10 -9 -14 -2 -10 16 10 28 -12 14 -26 -9 -9 -10 -7 -5 7 5 12 4 17 -3 13 -5
-3 -23 7 -38 23 -15 16 -31 28 -34 25 -4 -2 -8 8 -9 23 -1 14 -6 30 -12 36 -6
6 -5 14 2 23 8 10 8 13 0 11 -6 -2 -18 6 -27 17 -16 20 -16 20 -6 -1 6 -12 7
-25 3 -29 -4 -5 -1 -5 7 0 9 5 12 4 7 -3 -3 -6 -2 -13 3 -17 5 -3 9 -14 8 -25
-1 -10 -5 -17 -9 -14 -4 3 -4 12 -1 21 4 11 3 14 -6 9 -6 -4 -11 -4 -10 1 1 4
0 10 -1 13 -1 3 -3 12 -5 20 -8 38 -11 46 -20 53 -6 5 -3 7 7 3 18 -5 32 6 21
18 -14 13 -13 50 1 65 17 19 18 31 3 51 -6 8 -8 12 -3 8 5 -4 16 1 25 10 9 10
14 13 11 7 -3 -6 2 -4 10 5 19 20 54 35 44 18 -4 -6 3 -5 15 4 21 15 47 15
121 2z m-224 -80 c-1 -6 -7 -19 -14 -27 -13 -15 -12 -43 3 -67 7 -12 6 -13 -7
-3 -8 7 -17 11 -19 8 -3 -2 -4 11 -4 30 0 18 5 33 10 32 6 -1 10 7 9 19 0 11
5 21 12 21 6 0 11 -6 10 -13z m146 -326 c-8 -8 -9 -4 -5 13 4 13 8 18 11 10 2
-7 -1 -18 -6 -23z m118 -18 c6 -11 8 -20 6 -20 -3 0 -10 9 -16 20 -6 11 -8 20
-6 20 3 0 10 -9 16 -20z m63 0 c3 -11 1 -18 -4 -14 -5 3 -9 12 -9 20 0 20 7
17 13 -6z"/>
<path d="M5060 4185 c13 -14 26 -25 28 -25 3 0 -5 11 -18 25 -13 14 -26 25
-28 25 -3 0 5 -11 18 -25z"/>
<path d="M6503 3844 c-3 -8 -2 -19 3 -24 5 -5 9 1 9 16 0 28 -3 30 -12 8z"/>
<path d="M6610 3827 c0 -3 12 -12 26 -22 15 -9 23 -12 20 -6 -7 11 -46 35 -46
28z"/>
<path d="M6016 2608 c3 -5 10 -6 15 -3 13 9 11 12 -6 12 -8 0 -12 -4 -9 -9z"/>
<path d="M6046 2603 c-6 -14 -5 -15 5 -6 7 7 10 15 7 18 -3 3 -9 -2 -12 -12z"/>
<path d="M5882 2481 c0 -17 1 -31 3 -31 7 0 12 39 5 49 -4 7 -7 -1 -8 -18z"/>
<path d="M5865 2400 c-7 -11 22 -26 32 -16 4 3 -2 6 -13 6 -16 0 -17 2 -4 10
9 6 10 10 3 10 -6 0 -15 -5 -18 -10z"/>
<path d="M5885 2359 c-4 -6 -5 -12 -2 -15 2 -3 7 2 10 11 7 17 1 20 -8 4z"/>
<path d="M5945 2169 c-4 -6 -4 -13 -1 -16 3 -4 6 -1 6 6 0 7 5 9 12 5 7 -4 8
-3 4 4 -9 15 -13 15 -21 1z"/>
<path d="M5163 1045 c0 -8 4 -12 9 -9 5 3 6 10 3 15 -9 13 -12 11 -12 -6z"/>
<path d="M5163 985 c0 -8 4 -12 9 -9 5 3 6 10 3 15 -9 13 -12 11 -12 -6z"/>
<path d="M4763 950 c-1 -10 11 -29 27 -43 25 -22 29 -24 35 -9 3 9 3 13 -1 10
-10 -11 -45 12 -38 24 5 7 2 8 -6 3 -10 -6 -12 -4 -7 8 3 9 3 18 -1 21 -4 3
-8 -4 -9 -14z"/>
<path d="M5137 934 c-3 -3 -3 -13 0 -22 5 -11 3 -13 -7 -7 -8 5 -11 4 -7 -2 8
-13 -17 -36 -27 -26 -4 4 -4 0 -1 -9 6 -15 10 -14 29 10 23 27 35 77 13 56z"/>
<path d="M5069 878 c-8 -27 -5 -36 9 -30 10 4 12 7 4 10 -7 2 -10 8 -6 13 3 5
3 9 0 9 -3 0 -6 -1 -7 -2z"/>
<path d="M4914 850 c0 -10 2 -17 5 -15 2 3 11 -1 19 -8 11 -9 11 -4 -2 16 -22
32 -22 32 -22 7z"/>
<path d="M4996 852 c-2 -4 -1 -14 4 -22 7 -11 9 -9 7 8 -1 24 -3 26 -11 14z"/>
<path d="M4530 3662 c13 -26 32 -25 36 1 1 9 -2 15 -7 11 -5 -3 -7 -10 -4 -15
11 -16 -7 -10 -22 9 -13 15 -13 15 -3 -6z"/>
<path d="M695 3590 c-239 -32 -478 -229 -561 -462 -7 -22 -23 -99 -35 -171
-27 -166 -22 -260 20 -385 65 -193 169 -320 410 -499 250 -186 418 -370 506
-555 108 -228 99 -482 -24 -628 l-29 -35 -83 1 c-72 0 -147 15 -205 40 -7 3
-16 -19 -23 -58 -7 -35 -15 -73 -18 -85 -5 -22 -2 -23 52 -23 60 0 172 33 259
77 68 34 161 130 191 196 110 238 79 500 -87 749 -101 151 -198 238 -446 400
-279 181 -512 518 -512 738 0 181 170 425 360 518 47 23 112 49 145 57 62 16
228 22 287 10 55 -11 160 -46 208 -70 38 -19 53 -22 90 -14 25 4 68 8 97 9 28
0 54 4 57 9 8 13 -204 115 -301 145 -78 24 -220 47 -273 45 -14 -1 -52 -5 -85
-9z"/>
<path d="M4796 2686 c6 -15 4 -17 -6 -11 -9 6 -11 4 -5 -4 5 -9 10 -10 18 -2
8 8 7 14 -2 24 -10 10 -11 8 -5 -7z"/>
<path d="M4663 2448 c1 -7 -3 -12 -9 -11 -6 1 -11 -5 -11 -13 0 -12 4 -11 18
2 10 9 16 21 13 25 -8 13 -14 11 -11 -3z"/>
</g>
</svg>
